Coordinates
version=1
nRows=14
nColumns=24
inDegrees=yes

Units are S.I. units (second, meters, Newtons, ...)
Angles are in degrees.

endheader
time	pelvis_tilt	pelvis_list	pelvis_rotation	pelvis_tx	pelvis_ty	pelvis_tz	hip_flexion_r	hip_adduction_r	hip_rotation_r	knee_angle_r	ankle_angle_r	subtalar_angle_r	mtp_angle_r	hip_flexion_l	hip_adduction_l	hip_rotation_l	knee_angle_l	ankle_angle_l	subtalar_angle_l	mtp_angle_l	lumbar_extension	lumbar_bending	lumbar_rotation
      4.23000000	     -9.76072189	     -2.38960937	     -7.43130726	     -1.09254492	     -0.04520408	     -0.26226166	     -6.29914330	      4.48216352	      3.42329593	    -20.71654826	      6.21440450	     14.13407023	     20.44792096	     39.30669959	     -3.35612024	      1.99704386	    -16.91678494	      5.07599008	     13.92946061	    -10.21960862	      8.73435796	      2.57555864	      1.86348072
      4.23500000	     -9.73287026	     -2.14720983	     -7.41356423	     -1.08454921	     -0.04614906	     -0.26246557	     -6.37911753	      4.00198338	      2.96051821	    -21.45262675	      5.47692056	     15.00285645	     21.89752541	     39.34030405	     -3.00992853	      1.94238902	    -17.68796265	      3.53365788	     13.16809960	     -8.51417285	      8.80101909	      2.19280512	      1.79202256
      4.24000000	     -9.82063844	     -1.91007173	     -7.53821440	     -1.07667454	     -0.04711933	     -0.26246585	     -6.23698523	      3.53972646	      2.67672486	    -22.40988637	      4.92482696	     16.07113652	     22.36896295	     39.56969806	     -2.80675621	      1.55769587	    -18.71652001	      2.59747661	     12.85247782	     -8.32764359	      8.97159572	      1.84990027	      1.90903455
      4.24500000	     -9.81198924	     -1.65017805	     -7.43355417	     -1.06878830	     -0.04791698	     -0.26279458	     -6.19779671	      3.01509940	      1.98289275	    -23.26642939	      3.98739854	     17.06253842	     23.84131443	     39.67065802	     -2.38128567	      1.59958527	    -19.59415888	      1.10450047	     11.93737980	     -7.35302329	      9.03536285	      1.42869863	      1.82957978
      4.25000000	     -9.94079739	     -1.31804640	     -7.56496858	     -1.06101784	     -0.04866685	     -0.26272736	     -5.89413940	      2.44424135	      1.70867747	    -24.34410226	      3.18348241	     18.10885197	     24.48919508	     39.92891312	     -2.10405056	      1.23674656	    -20.58515740	      0.02868222	     11.39968261	     -7.29680071	      9.24338807	      0.96804330	      1.93999735
      4.25500000	     -9.92715786	     -0.97081052	     -7.44671828	     -1.05319303	     -0.04921702	     -0.26307041	     -5.76409346	      1.80131404	      0.98969376	    -25.26215189	      1.87284289	     18.99708704	     26.52047856	     40.01238681	     -1.57983121	      1.31011539	    -21.45691861	     -1.39832509	     10.35268387	     -6.69820261	      9.29417744	      0.44527315	      1.86202236
      4.26000000	    -10.07923176	     -0.63167001	     -7.48977135	     -1.04547451	     -0.04983928	     -0.26320867	     -5.33429496	      1.17905188	      0.51235791	    -26.46523749	      0.82472342	     20.21502951	     27.13695736	     40.29845425	     -1.21016103	      1.15843616	    -22.46362761	     -2.32613409	      9.67830823	     -6.92548360	      9.51769611	     -0.01245441	      1.95478168
      4.26500000	    -10.02964006	     -0.29355310	     -7.31291610	     -1.03771442	     -0.05016679	     -0.26366499	     -5.17214156	      0.51396385	     -0.23187140	    -27.46598718	     -0.75430444	     21.18196044	     29.01075350	     40.32315785	     -0.61556189	      1.43369339	    -23.36449829	     -3.32699502	      8.62832081	     -7.20541137	      9.51058470	     -0.53817514	      1.83761149
      4.27000000	    -10.11361048	      0.08078246	     -7.26809314	     -1.03000742	     -0.05056937	     -0.26397246	     -4.75382060	     -0.18716920	     -0.80342359	    -28.66930182	     -2.26391764	     22.25366757	     30.28756247	     40.48261031	     -0.10490188	      1.49213316	    -24.29002134	     -4.06540523	      7.77224421	     -7.62974335	      9.65402851	     -1.05254450	      1.82088770
      4.27500000	    -10.23015138	      0.52739975	     -7.24614463	     -1.02219990	     -0.05088449	     -0.26414746	     -4.25819043	     -0.95359241	     -1.27374989	    -29.94327167	     -3.81334535	     23.30647760	     31.03528684	     40.62021222	      0.43535568	      1.48329148	    -25.13156379	     -4.65747622	      7.07166315	     -8.02490285	      9.86928931	     -1.64259751	      1.93751167
      4.28000000	    -10.10893708	      0.86734486	     -7.10262063	     -1.01452821	     -0.05090605	     -0.26464967	     -4.05187535	     -1.65540419	     -1.85462195	    -31.03310002	     -5.92452993	     24.07602548	     33.06034065	     40.46338408	      1.05297562	      1.81954004	    -25.92663807	     -5.03929359	      6.17521273	     -8.69250653	      9.76281793	     -2.14412456	      1.85927080
      4.28500000	    -10.24419350	      1.31531584	     -7.04729649	     -1.00677155	     -0.05115414	     -0.26488473	     -3.45293289	     -2.42384357	     -2.25526682	    -32.40529106	     -7.69167761	     24.98108756	     33.52829205	     40.54471009	      1.62421657	      1.86683226	    -26.65240913	     -5.29926556	      5.60537810	     -8.97683299	      9.99467530	     -2.72988872	      1.92607856
      4.29000000	    -10.20371729	      1.67965559	     -6.94287339	     -0.99919173	     -0.05115910	     -0.26538068	     -3.03862656	     -3.14090680	     -2.65739409	    -33.69063824	     -9.78022886	     25.76943223	     34.59903510	     40.38384419	      2.23476784	      2.16616660	    -27.30252710	     -5.41412610	      4.83299529	     -9.40267624	      9.97553649	     -3.21572082	      1.93153927
      4.29500000	    -10.25802316	      2.10457125	     -6.85102787	     -0.99156720	     -0.05120968	     -0.26572739	     -2.46393339	     -3.88437909	     -2.97130951	    -35.07708048	    -11.81781369	     26.37354811	     35.09695026	     40.27978888	      2.83857568	      2.29602797	    -27.87356631	     -5.37298598	      4.32141162	     -9.59913525	     10.09279034	     -3.76817801	      1.95911013
